<?xml version="1.0" encoding="UTF-8" standalone="no"?>
<!DOCTYPE svg PUBLIC "-//W3C//DTD SVG 1.1//EN"
 "http://www.w3.org/Graphics/SVG/1.1/DTD/svg11.dtd">
<!-- Generated by graphviz version 14.1.3 (20260303.0454)
 -->
<!-- Pages: 1 -->
<svg width="216pt" height="154pt"
 viewBox="0.00 0.00 216.00 154.00" xmlns="http://www.w3.org/2000/svg" xmlns:xlink="http://www.w3.org/1999/xlink">
<g id="graph0" class="graph" transform="scale(1 1) rotate(0) translate(8.64 145.04)">
<!-- n0 -->
<g id="node1" class="node">
<title>n0</title>
<ellipse fill="#edf4fc" stroke="#496888" cx="99.36" cy="-17.14" rx="30.08" ry="17.14"/>
<text xml:space="preserve" text-anchor="middle" x="99.36" y="-13.24" font-family="Meiryo" font-size="13.00">終了</text>
</g>
<!-- n1 -->
<g id="node2" class="node">
<title>n1</title>
<path fill="#edf4fc" stroke="#496888" d="M186.72,-88.12C186.72,-88.12 12,-88.12 12,-88.12 6,-88.12 0,-82.12 0,-76.12 0,-76.12 0,-60.28 0,-60.28 0,-54.28 6,-48.28 12,-48.28 12,-48.28 186.72,-48.28 186.72,-48.28 192.72,-48.28 198.72,-54.28 198.72,-60.28 198.72,-60.28 198.72,-76.12 198.72,-76.12 198.72,-82.12 192.72,-88.12 186.72,-88.12"/>
<text xml:space="preserve" text-anchor="middle" x="99.36" y="-72.1" font-family="Meiryo" font-size="13.00">箱（変数）を用意する</text>
<text xml:space="preserve" text-anchor="middle" x="99.36" y="-56.5" font-family="Meiryo" font-size="13.00">右辺の計算結果を箱へ入れる</text>
</g>
<!-- n1&#45;&gt;n0 -->
<g id="edge1" class="edge">
<title>n1&#45;&gt;n0</title>
<path fill="none" stroke="#496888" d="M99.36,-47.81C99.36,-46.03 99.36,-44.2 99.36,-42.38"/>
<polygon fill="#496888" stroke="#496888" points="101.64,-42.55 99.36,-36.05 97.09,-42.55 101.64,-42.55"/>
</g>
<!-- n2 -->
<g id="node3" class="node">
<title>n2</title>
<ellipse fill="#edf4fc" stroke="#496888" cx="99.36" cy="-119.26" rx="30.08" ry="17.14"/>
<text xml:space="preserve" text-anchor="middle" x="99.36" y="-115.36" font-family="Meiryo" font-size="13.00">開始</text>
</g>
<!-- n2&#45;&gt;n1 -->
<g id="edge2" class="edge">
<title>n2&#45;&gt;n1</title>
<path fill="none" stroke="#496888" d="M99.36,-101.65C99.36,-99.93 99.36,-98.16 99.36,-96.37"/>
<polygon fill="#496888" stroke="#496888" points="101.64,-96.52 99.36,-90.02 97.09,-96.52 101.64,-96.52"/>
</g>
</g>
</svg>
