<?xml version="1.0" encoding="UTF-8" standalone="no"?>
<!DOCTYPE svg PUBLIC "-//W3C//DTD SVG 1.1//EN"
 "http://www.w3.org/Graphics/SVG/1.1/DTD/svg11.dtd">
<!-- Generated by graphviz version 14.1.3 (20260303.0454)
 -->
<!-- Pages: 1 -->
<svg width="122pt" height="211pt"
 viewBox="0.00 0.00 122.00 211.00" xmlns="http://www.w3.org/2000/svg" xmlns:xlink="http://www.w3.org/1999/xlink">
<g id="graph0" class="graph" transform="scale(1 1) rotate(0) translate(8.64 202)">
<!-- n0 -->
<g id="node1" class="node">
<title>n0</title>
<ellipse fill="#edf4fc" stroke="#496888" cx="52.56" cy="-17.14" rx="30.08" ry="17.14"/>
<text xml:space="preserve" text-anchor="middle" x="52.56" y="-13.24" font-family="Meiryo" font-size="13.00">終了</text>
</g>
<!-- n1 -->
<g id="node2" class="node">
<title>n1</title>
<path fill="#edf4fc" stroke="#496888" d="M93.12,-103.72C93.12,-103.72 12,-103.72 12,-103.72 6,-103.72 0,-97.72 0,-91.72 0,-91.72 0,-60.28 0,-60.28 0,-54.28 6,-48.28 12,-48.28 12,-48.28 93.12,-48.28 93.12,-48.28 99.12,-48.28 105.12,-54.28 105.12,-60.28 105.12,-60.28 105.12,-91.72 105.12,-91.72 105.12,-97.72 99.12,-103.72 93.12,-103.72"/>
<text xml:space="preserve" text-anchor="middle" x="52.56" y="-87.7" font-family="Meiryo" font-size="13.00">b ← a</text>
<text xml:space="preserve" text-anchor="middle" x="52.56" y="-72.1" font-family="Meiryo" font-size="13.00">a ← a ＋ 6</text>
<text xml:space="preserve" text-anchor="middle" x="52.56" y="-56.5" font-family="Meiryo" font-size="13.00">b ← b ＋ a</text>
</g>
<!-- n1&#45;&gt;n0 -->
<g id="edge1" class="edge">
<title>n1&#45;&gt;n0</title>
<path fill="none" stroke="#496888" d="M52.56,-47.9C52.56,-46.04 52.56,-44.18 52.56,-42.33"/>
<polygon fill="#496888" stroke="#496888" points="54.84,-42.52 52.56,-36.02 50.29,-42.52 54.84,-42.52"/>
</g>
<!-- n2 -->
<g id="node3" class="node">
<title>n2</title>
<path fill="#edf4fc" stroke="#496888" d="M77.64,-145.08C77.64,-145.08 27.48,-145.08 27.48,-145.08 22.92,-145.08 18.36,-140.52 18.36,-135.96 18.36,-135.96 18.36,-126.84 18.36,-126.84 18.36,-122.28 22.92,-117.72 27.48,-117.72 27.48,-117.72 77.64,-117.72 77.64,-117.72 82.2,-117.72 86.76,-122.28 86.76,-126.84 86.76,-126.84 86.76,-135.96 86.76,-135.96 86.76,-140.52 82.2,-145.08 77.64,-145.08"/>
<text xml:space="preserve" text-anchor="middle" x="52.56" y="-127.5" font-family="Meiryo" font-size="13.00">a ← 4</text>
</g>
<!-- n2&#45;&gt;n1 -->
<g id="edge2" class="edge">
<title>n2&#45;&gt;n1</title>
<path fill="none" stroke="#496888" d="M52.56,-117.47C52.56,-115.69 52.56,-113.8 52.56,-111.84"/>
<polygon fill="#496888" stroke="#496888" points="54.84,-112.07 52.56,-105.57 50.29,-112.07 54.84,-112.07"/>
</g>
<!-- n3 -->
<g id="node4" class="node">
<title>n3</title>
<ellipse fill="#edf4fc" stroke="#496888" cx="52.56" cy="-176.22" rx="30.08" ry="17.14"/>
<text xml:space="preserve" text-anchor="middle" x="52.56" y="-172.32" font-family="Meiryo" font-size="13.00">開始</text>
</g>
<!-- n3&#45;&gt;n2 -->
<g id="edge3" class="edge">
<title>n3&#45;&gt;n2</title>
<path fill="none" stroke="#496888" d="M52.56,-158.79C52.56,-156.99 52.56,-155.14 52.56,-153.29"/>
<polygon fill="#496888" stroke="#496888" points="54.84,-153.41 52.56,-146.91 50.29,-153.41 54.84,-153.41"/>
</g>
</g>
</svg>
