<?xml version="1.0" encoding="UTF-8" standalone="no"?>
<!DOCTYPE svg PUBLIC "-//W3C//DTD SVG 1.1//EN"
 "http://www.w3.org/Graphics/SVG/1.1/DTD/svg11.dtd">
<!-- Generated by graphviz version 14.1.3 (20260303.0454)
 -->
<!-- Pages: 1 -->
<svg width="302pt" height="211pt"
 viewBox="0.00 0.00 302.00 211.00" xmlns="http://www.w3.org/2000/svg" xmlns:xlink="http://www.w3.org/1999/xlink">
<g id="graph0" class="graph" transform="scale(1 1) rotate(0) translate(8.64 202)">
<!-- n0 -->
<g id="node1" class="node">
<title>n0</title>
<ellipse fill="#edf4fc" stroke="#496888" cx="142.2" cy="-17.14" rx="30.08" ry="17.14"/>
<text xml:space="preserve" text-anchor="middle" x="142.2" y="-13.24" font-family="Meiryo" font-size="13.00">終了</text>
</g>
<!-- n1 -->
<g id="node2" class="node">
<title>n1</title>
<path fill="#edf4fc" stroke="#496888" d="M272.4,-103.72C272.4,-103.72 12,-103.72 12,-103.72 6,-103.72 0,-97.72 0,-91.72 0,-91.72 0,-60.28 0,-60.28 0,-54.28 6,-48.28 12,-48.28 12,-48.28 272.4,-48.28 272.4,-48.28 278.4,-48.28 284.4,-54.28 284.4,-60.28 284.4,-60.28 284.4,-91.72 284.4,-91.72 284.4,-97.72 278.4,-103.72 272.4,-103.72"/>
<text xml:space="preserve" text-anchor="middle" x="142.2" y="-87.7" font-family="Meiryo" font-size="13.00">rate ← 0.1</text>
<text xml:space="preserve" text-anchor="middle" x="142.2" y="-72.1" font-family="Meiryo" font-size="13.00">taxIncluded ← price × (1 ＋ rate)</text>
<text xml:space="preserve" text-anchor="middle" x="142.2" y="-56.5" font-family="Meiryo" font-size="13.00">表示する(taxIncluded)</text>
</g>
<!-- n1&#45;&gt;n0 -->
<g id="edge1" class="edge">
<title>n1&#45;&gt;n0</title>
<path fill="none" stroke="#496888" d="M142.2,-47.9C142.2,-46.04 142.2,-44.18 142.2,-42.33"/>
<polygon fill="#496888" stroke="#496888" points="144.48,-42.52 142.2,-36.02 139.93,-42.52 144.48,-42.52"/>
</g>
<!-- n2 -->
<g id="node3" class="node">
<title>n2</title>
<path fill="#edf4fc" stroke="#496888" d="M193.92,-145.08C193.92,-145.08 90.48,-145.08 90.48,-145.08 85.92,-145.08 81.36,-140.52 81.36,-135.96 81.36,-135.96 81.36,-126.84 81.36,-126.84 81.36,-122.28 85.92,-117.72 90.48,-117.72 90.48,-117.72 193.92,-117.72 193.92,-117.72 198.48,-117.72 203.04,-122.28 203.04,-126.84 203.04,-126.84 203.04,-135.96 203.04,-135.96 203.04,-140.52 198.48,-145.08 193.92,-145.08"/>
<text xml:space="preserve" text-anchor="middle" x="142.2" y="-127.5" font-family="Meiryo" font-size="13.00">price ← 1200</text>
</g>
<!-- n2&#45;&gt;n1 -->
<g id="edge2" class="edge">
<title>n2&#45;&gt;n1</title>
<path fill="none" stroke="#496888" d="M142.2,-117.47C142.2,-115.69 142.2,-113.8 142.2,-111.84"/>
<polygon fill="#496888" stroke="#496888" points="144.48,-112.07 142.2,-105.57 139.93,-112.07 144.48,-112.07"/>
</g>
<!-- n3 -->
<g id="node4" class="node">
<title>n3</title>
<ellipse fill="#edf4fc" stroke="#496888" cx="142.2" cy="-176.22" rx="30.08" ry="17.14"/>
<text xml:space="preserve" text-anchor="middle" x="142.2" y="-172.32" font-family="Meiryo" font-size="13.00">開始</text>
</g>
<!-- n3&#45;&gt;n2 -->
<g id="edge3" class="edge">
<title>n3&#45;&gt;n2</title>
<path fill="none" stroke="#496888" d="M142.2,-158.79C142.2,-156.99 142.2,-155.14 142.2,-153.29"/>
<polygon fill="#496888" stroke="#496888" points="144.48,-153.41 142.2,-146.91 139.93,-153.41 144.48,-153.41"/>
</g>
</g>
</svg>
