<?xml version="1.0" encoding="UTF-8" standalone="no"?>
<!DOCTYPE svg PUBLIC "-//W3C//DTD SVG 1.1//EN"
 "http://www.w3.org/Graphics/SVG/1.1/DTD/svg11.dtd">
<!-- Generated by graphviz version 14.1.3 (20260303.0454)
 -->
<!-- Pages: 1 -->
<svg width="197pt" height="169pt"
 viewBox="0.00 0.00 197.00 169.00" xmlns="http://www.w3.org/2000/svg" xmlns:xlink="http://www.w3.org/1999/xlink">
<g id="graph0" class="graph" transform="scale(1 1) rotate(0) translate(8.64 160.64)">
<!-- n0 -->
<g id="node1" class="node">
<title>n0</title>
<ellipse fill="#edf4fc" stroke="#496888" cx="90" cy="-17.14" rx="30.08" ry="17.14"/>
<text xml:space="preserve" text-anchor="middle" x="90" y="-13.24" font-family="Meiryo" font-size="13.00">終了</text>
</g>
<!-- n1 -->
<g id="node2" class="node">
<title>n1</title>
<path fill="#edf4fc" stroke="#496888" d="M168,-103.72C168,-103.72 12,-103.72 12,-103.72 6,-103.72 0,-97.72 0,-91.72 0,-91.72 0,-60.28 0,-60.28 0,-54.28 6,-48.28 12,-48.28 12,-48.28 168,-48.28 168,-48.28 174,-48.28 180,-54.28 180,-60.28 180,-60.28 180,-91.72 180,-91.72 180,-97.72 174,-103.72 168,-103.72"/>
<text xml:space="preserve" text-anchor="middle" x="90" y="-87.7" font-family="Meiryo" font-size="13.00">price ← 2000</text>
<text xml:space="preserve" text-anchor="middle" x="90" y="-72.1" font-family="Meiryo" font-size="13.00">price ← price × 0.9</text>
<text xml:space="preserve" text-anchor="middle" x="90" y="-56.5" font-family="Meiryo" font-size="13.00">price ← price ＋ 300</text>
</g>
<!-- n1&#45;&gt;n0 -->
<g id="edge1" class="edge">
<title>n1&#45;&gt;n0</title>
<path fill="none" stroke="#496888" d="M90,-47.9C90,-46.04 90,-44.18 90,-42.33"/>
<polygon fill="#496888" stroke="#496888" points="92.28,-42.52 90,-36.02 87.73,-42.52 92.28,-42.52"/>
</g>
<!-- n2 -->
<g id="node3" class="node">
<title>n2</title>
<ellipse fill="#edf4fc" stroke="#496888" cx="90" cy="-134.86" rx="30.08" ry="17.14"/>
<text xml:space="preserve" text-anchor="middle" x="90" y="-130.96" font-family="Meiryo" font-size="13.00">開始</text>
</g>
<!-- n2&#45;&gt;n1 -->
<g id="edge2" class="edge">
<title>n2&#45;&gt;n1</title>
<path fill="none" stroke="#496888" d="M90,-117.41C90,-115.58 90,-113.66 90,-111.7"/>
<polygon fill="#496888" stroke="#496888" points="92.28,-112.03 90,-105.53 87.73,-112.03 92.28,-112.03"/>
</g>
</g>
</svg>
