<?xml version="1.0" encoding="UTF-8" standalone="no"?>
<!DOCTYPE svg PUBLIC "-//W3C//DTD SVG 1.1//EN"
 "http://www.w3.org/Graphics/SVG/1.1/DTD/svg11.dtd">
<!-- Generated by graphviz version 14.1.3 (20260303.0454)
 -->
<!-- Pages: 1 -->
<svg width="305pt" height="226pt"
 viewBox="0.00 0.00 305.00 226.00" xmlns="http://www.w3.org/2000/svg" xmlns:xlink="http://www.w3.org/1999/xlink">
<g id="graph0" class="graph" transform="scale(1 1) rotate(0) translate(8.64 217.44)">
<!-- n0 -->
<g id="node1" class="node">
<title>n0</title>
<ellipse fill="#edf4fc" stroke="#496888" cx="142.68" cy="-17.14" rx="30.08" ry="17.14"/>
<text xml:space="preserve" text-anchor="middle" x="142.68" y="-13.24" font-family="Meiryo" font-size="13.00">終了</text>
</g>
<!-- n1 -->
<g id="node2" class="node">
<title>n1</title>
<path fill="#fff3db" stroke="#496888" d="M132.04,-154.62C132.04,-154.62 57.9,-136.18 57.9,-136.18 52.08,-134.73 52.08,-131.83 57.9,-130.38 57.9,-130.38 132.04,-111.94 132.04,-111.94 137.86,-110.49 149.5,-110.49 155.32,-111.94 155.32,-111.94 229.46,-130.38 229.46,-130.38 235.28,-131.83 235.28,-134.73 229.46,-136.18 229.46,-136.18 155.32,-154.62 155.32,-154.62 149.5,-156.07 137.86,-156.07 132.04,-154.62"/>
<text xml:space="preserve" text-anchor="middle" x="143.68" y="-129.38" font-family="Meiryo" font-size="13.00">x mod 2 ＝ 0 ?</text>
</g>
<!-- n2 -->
<g id="node3" class="node">
<title>n2</title>
<path fill="#edf4fc" stroke="#496888" d="M126.24,-78.64C126.24,-78.64 9.12,-78.64 9.12,-78.64 4.56,-78.64 0,-74.08 0,-69.52 0,-69.52 0,-60.4 0,-60.4 0,-55.84 4.56,-51.28 9.12,-51.28 9.12,-51.28 126.24,-51.28 126.24,-51.28 130.8,-51.28 135.36,-55.84 135.36,-60.4 135.36,-60.4 135.36,-69.52 135.36,-69.52 135.36,-74.08 130.8,-78.64 126.24,-78.64"/>
<text xml:space="preserve" text-anchor="middle" x="67.68" y="-61.06" font-family="Meiryo" font-size="13.00">表示する(&quot;偶数&quot;)</text>
</g>
<!-- n1&#45;&gt;n2 -->
<g id="edge2" class="edge">
<title>n1&#45;&gt;n2</title>
<path fill="none" stroke="#496888" d="M122.51,-113.81C111.94,-104.58 99.18,-93.45 88.64,-84.25"/>
<polygon fill="#496888" stroke="#496888" points="90.25,-82.64 83.86,-80.08 87.26,-86.07 90.25,-82.64"/>
<text xml:space="preserve" text-anchor="middle" x="114.68" y="-90.24" font-family="Meiryo" font-size="12.00">はい</text>
</g>
<!-- n3 -->
<g id="node4" class="node">
<title>n3</title>
<path fill="#edf4fc" stroke="#496888" d="M278.24,-78.64C278.24,-78.64 161.12,-78.64 161.12,-78.64 156.56,-78.64 152,-74.08 152,-69.52 152,-69.52 152,-60.4 152,-60.4 152,-55.84 156.56,-51.28 161.12,-51.28 161.12,-51.28 278.24,-51.28 278.24,-51.28 282.8,-51.28 287.36,-55.84 287.36,-60.4 287.36,-60.4 287.36,-69.52 287.36,-69.52 287.36,-74.08 282.8,-78.64 278.24,-78.64"/>
<text xml:space="preserve" text-anchor="middle" x="219.68" y="-61.06" font-family="Meiryo" font-size="13.00">表示する(&quot;奇数&quot;)</text>
</g>
<!-- n1&#45;&gt;n3 -->
<g id="edge4" class="edge">
<title>n1&#45;&gt;n3</title>
<path fill="none" stroke="#496888" d="M164.85,-113.81C175.42,-104.58 188.18,-93.45 198.72,-84.25"/>
<polygon fill="#496888" stroke="#496888" points="200.1,-86.07 203.5,-80.08 197.11,-82.64 200.1,-86.07"/>
<text xml:space="preserve" text-anchor="middle" x="208.6" y="-90.24" font-family="Meiryo" font-size="12.00">いいえ</text>
</g>
<!-- n2&#45;&gt;n0 -->
<g id="edge1" class="edge">
<title>n2&#45;&gt;n0</title>
<path fill="none" stroke="#496888" d="M88.97,-50.95C97.39,-45.81 107.16,-39.84 116.04,-34.41"/>
<polygon fill="#496888" stroke="#496888" points="116.97,-36.51 121.33,-31.18 114.6,-32.63 116.97,-36.51"/>
</g>
<!-- n3&#45;&gt;n0 -->
<g id="edge3" class="edge">
<title>n3&#45;&gt;n0</title>
<path fill="none" stroke="#496888" d="M197.82,-50.95C189.1,-45.77 178.98,-39.74 169.8,-34.28"/>
<polygon fill="#496888" stroke="#496888" points="171.06,-32.38 164.31,-31.01 168.73,-36.29 171.06,-32.38"/>
</g>
<!-- n4 -->
<g id="node5" class="node">
<title>n4</title>
<ellipse fill="#edf4fc" stroke="#496888" cx="143.68" cy="-191.66" rx="30.08" ry="17.14"/>
<text xml:space="preserve" text-anchor="middle" x="143.68" y="-187.76" font-family="Meiryo" font-size="13.00">開始</text>
</g>
<!-- n4&#45;&gt;n1 -->
<g id="edge5" class="edge">
<title>n4&#45;&gt;n1</title>
<path fill="none" stroke="#496888" d="M143.68,-174.05C143.68,-171.44 143.68,-168.66 143.68,-165.84"/>
<polygon fill="#496888" stroke="#496888" points="145.96,-165.89 143.68,-159.39 141.41,-165.89 145.96,-165.89"/>
</g>
</g>
</svg>
